<?xml version="1.0" encoding="utf-8"?>
<!-- Generator: Adobe Illustrator 25.3.1, SVG Export Plug-In . SVG Version: 6.00 Build 0)  -->
<svg version="1.1" id="Layer_1" xmlns="http://www.w3.org/2000/svg" xmlns:xlink="http://www.w3.org/1999/xlink" x="0px" y="0px"
	 viewBox="0 0 800 800" style="enable-background:new 0 0 800 800;" xml:space="preserve">
<style type="text/css">
	.st0{fill:#F9EF82;}
	.st1{clip-path:url(#SVGID_2_);fill:#E94A39;}
	.st2{clip-path:url(#SVGID_4_);fill:#E94A39;}
	.st3{clip-path:url(#SVGID_4_);}
	.st4{fill:#E94A39;}
	.st5{font-family:'Maxular-Light';}
	.st6{font-size:21.0951px;}
	.st7{font-size:35.4328px;}
	.st8{font-size:35.8189px;}
	.st9{font-size:21.3102px;}
	.st10{clip-path:url(#SVGID_6_);fill:#E94A39;}
	.st11{clip-path:url(#SVGID_6_);}
	.st12{font-family:'VimSM-Heavy';}
	.st13{font-size:57.2826px;}
</style>
<rect x="-2.2" y="-1.2" class="st0" width="803.1" height="803.1"/>
<g>
	<defs>
		<rect id="SVGID_1_" x="279.2" y="155.8" width="241.3" height="489.2"/>
	</defs>
	<clipPath id="SVGID_2_">
		<use xlink:href="#SVGID_1_"  style="overflow:visible;"/>
	</clipPath>
	<path class="st1" d="M390.6,240.9c0-1.5-2.5-4.5-3.9-4.8c-0.8-0.1-1.4,0.3-1.9,0.8c-0.5,0.6-0.7,1.3-0.3,2c1.1,1.8,2.8,2.7,4.8,3
		C390,242.1,390.6,241.7,390.6,240.9 M380.6,214.6c-0.7-1.9-1.4-3.6-3.1-4.8c-0.9-0.6-1.8-0.7-2.7,0.1c-0.7,0.7-1,1.5-0.4,2.5
		C375.5,214.3,378.3,215.4,380.6,214.6 M445.2,167.7c-0.7,0.1-1.5-0.2-2,0.6c-0.5,0.8,0.1,1.5,0.6,2.1c0.9,1.2,2.1,1.9,3.5,2.4
		c1.1,0.4,1.9-0.1,2.5-1c0.7-1,0.4-1.9-0.4-2.6C448.2,168.3,446.8,167.8,445.2,167.7 M415.8,235.2c-0.1-0.6-0.1-1.3-0.3-1.9
		c-0.2-0.7-0.3-1.5-1.2-1.6c-0.8-0.1-1.3,0.5-1.7,1.1c-0.9,1.4-1.6,2.8-1.4,4.5c0.1,1.1,0.8,1.6,1.7,1.9c1,0.3,1.6-0.2,2.1-1
		C415.7,237.3,415.8,236.3,415.8,235.2 M405.5,208.2c0.1-0.7-0.1-1.5-0.4-2.2c-0.6-1.6-1.4-1.8-2.5-0.5c-1.1,1.3-1.7,2.8-1.8,4.4
		c-0.1,1.3,0.7,2.2,2.1,2.3C404.7,212.4,405.6,211,405.5,208.2 M308.1,241.3c0,1-0.2,2.1,0.9,2.5c1,0.4,1.7-0.4,2.3-1
		c0.9-0.9,1.5-2,1.9-3.2c0.4-1.1,0.1-2.1-1-2.6c-1.1-0.5-2.2-0.4-2.9,0.7C308.5,238.8,308.2,240.1,308.1,241.3 M363.7,193.8
		c1-0.2,2.3-0.3,3.5-1c1.1-0.7,1.7-1.6,1.1-2.9c-0.6-1.3-1.7-1.6-3-1.1c-1.2,0.4-2.2,1-3.1,1.9c-0.6,0.6-1.3,1.2-0.9,2.2
		C361.6,193.7,362.5,193.8,363.7,193.8 M304.6,218.3c0,1,0.5,1.6,1.3,2.1c0.8,0.5,1.5,0.4,2.2-0.1c1.8-1.3,2.6-3.3,2.9-5.4
		c0.1-0.7-0.3-1.2-1.2-1.3C307.9,213.5,304.6,216.5,304.6,218.3 M446.9,235c-0.1-0.7-0.1-1.4-0.3-2.1c-0.3-1-1.1-1.6-2.2-1.5
		c-1,0.1-1.9,0.5-2,1.5c-0.4,2.2,0,4.3,1.4,6.1c0.8,1,1.5,0.8,2.2-0.2C446.6,237.6,446.8,236.3,446.9,235 M395.1,183.9
		c-1.6,0.5-3.6,1.3-4.7,3.2c-0.5,0.9-0.3,1.8,0.4,2.5c0.6,0.6,1.2,1.2,2.2,0.8c1.7-0.6,3.8-3.3,4-5
		C397,184.3,396.6,183.8,395.1,183.9 M426.2,209.8c0.1,1.7,0.5,3.4,1.6,4.7c0.8,1,1.7,1,2.3-0.2c0.8-1.7,1.3-3.4,0.8-5.3
		c-0.4-1.4-1.2-2.2-2.7-2C426.7,207.3,426.1,208.3,426.2,209.8 M321.4,188.9c-2,0.3-3.3,1.7-4.5,3.3c-0.8,1.1-0.7,2.2,0.4,3.1
		c1.2,1,2.3,0.7,3.3-0.3c1.3-1.3,2.5-2.6,2.3-4.7C322.8,189.3,322.4,189,321.4,188.9 M429.3,175.6c-0.9,0-1.7,0.4-2.1,1.2
		c-0.5,0.9-0.4,1.8,0.1,2.6c1.1,1.6,2.7,2.7,4.5,3.3c0.8,0.3,1.6,0.1,1.9-0.9C434.3,180,431.2,175.7,429.3,175.6 M341.6,246.7
		c-0.3-1.6-1.2-3.3-2.8-4.6c-1-0.8-2.1-0.9-3.2,0.1c-1.1,1-1.1,2.2-0.2,3.3c1.1,1.5,2.6,2.5,4.4,3.1
		C341.1,248.9,341.7,248.4,341.6,246.7 M458.1,195.1c0-1.3,0-2.3-0.9-2.8c-1-0.5-1.7,0.3-2.3,0.9c-1,1-1.8,2.1-2.2,3.4
		c-0.4,1.4-0.3,2.6,1.1,3.3c1.3,0.6,2.8-0.1,3.5-1.6C457.7,197.1,457.9,195.9,458.1,195.1 M338.8,219.9c-0.3-1.8-1.3-3.4-2.8-4.7
		c-1-0.9-2.1-1-3.1,0c-1,0.9-1.1,2-0.4,3.2c1.1,1.7,2.6,2.7,4.5,3.2C338.1,221.9,338.9,221.5,338.8,219.9 M410.3,175.1
		c0-1.8-2.9-5-4.7-5.3c-0.8-0.1-1.3,0.2-1.3,1c-0.2,2.4,0.4,4.5,2.2,6.2c0.7,0.7,1.6,0.8,2.5,0.3
		C409.7,176.8,410.3,176.2,410.3,175.1 M473.9,218.8c-0.1-0.7,0.3-1.9-0.9-2.3c-1.1-0.4-1.8,0.5-2.5,1.2c-1,1-1.7,2.2-2.1,3.5
		c-0.4,1.3,0,2.3,1.2,2.9c1.3,0.6,2.4,0.3,3.2-1C473.5,221.9,473.9,220.5,473.9,218.8 M473.7,189.2c-0.1,1.3,0.2,2.5,0.7,3.6
		c0.7,1.6,1.6,1.8,2.7,0.4c1.3-1.7,1.7-3.8,1.4-5.9c-0.1-0.7-0.5-1.1-1.1-1.5C475.3,184.8,473.7,186.3,473.7,189.2 M497.2,212
		c-0.1,1.3,0.2,2.5,0.8,3.6c0.7,1.4,1.6,1.5,2.5,0.3c1.3-1.7,1.8-3.6,1.6-5.7c-0.1-1.2-0.8-1.8-1.9-2c-1.1-0.2-1.9,0.2-2.5,1.1
		C497.3,210.2,497.2,211.1,497.2,212 M343.2,184.1c0.1-0.9-0.4-1.6-1.4-2c-0.9-0.4-1.8-0.4-2.5,0.3c-1.8,1.6-2.1,3.8-2,6
		c0.1,1,0.8,1.6,1.9,1.3C340.8,189.3,343.2,186.1,343.2,184.1 M365,171.8c0.1,1.5,0.9,2.7,2.3,2.6c2.2-0.1,4.1-1.1,5.6-2.9
		c0.8-0.9,0.7-1.8-0.6-2.3c-2.2-0.7-4.2-0.4-6.2,0.6C365.3,170.3,364.9,171,365,171.8 M361.4,238.2c0.1,1,0,1.9,0.3,2.8
		c0.5,1.6,1.6,2.2,3.1,1.9c1.6-0.3,2-1.5,1.8-2.9c-0.1-0.9-0.4-1.8-0.8-2.6c-0.7-1.3-1.4-3.1-3.1-2.7
		C361,235,361.6,236.9,361.4,238.2 M362.2,221.5c0-1.6-1.3-4.4-2.6-5.5c-1.2-1-1.8-0.8-2.4,0.7c-0.7,2-0.5,4,0.3,5.9
		c0.5,1.2,1.5,1.6,2.7,1.4C361.5,223.7,362.1,222.8,362.2,221.5 M279.2,246.7c-0.1-11.7,1.9-22,5.9-31.7
		c6.4-15.3,16.6-27.3,30.3-36.7c12.3-8.5,26-13.6,40.6-16.2c6.2-1.1,12.6-1.5,18.9-2.1c6.7-0.6,13.4-1.3,20.1-1.9
		c6.3-0.6,12.6-1.2,18.9-1.7c3.9-0.3,7.8-0.8,11.7-0.7c7,0.2,13.9,0.7,20.8,2.1c15.3,3.1,29.1,9.2,41.1,19.2
		c14.9,12.5,24,28.4,27.4,47.6c1,5.5,1.6,11,1.6,16.5c0.1,6.4-4.9,12.3-11.3,13.1c-7.1,0.8-14.2,1.4-21.2,2
		c-7.7,0.7-15.4,1.5-23.2,2.2c-6.3,0.6-12.6,1.1-18.9,1.7c-6.6,0.6-13.2,1.3-19.9,1.9c-7.7,0.7-15.4,1.3-23.2,2.1
		c-9.3,0.9-18.6,1.8-27.9,2.6c-7.9,0.7-15.7,1.4-23.6,2.1c-7.7,0.7-15.5,1.5-23.2,2.2c-4.4,0.4-8.8,1-13.2,1.2
		c-3.5,0.1-7,1.2-10.5,0.9c-2.8-0.2-5.4,0.8-8.3,0.5c-5.6-0.6-11-5.4-11.8-11c-0.4-2.8-0.5-5.7-0.8-8.6
		C279.3,251.3,279.1,248.4,279.2,246.7"/>
	<path class="st1" d="M436.4,644.8c-10,0-20,0-30,0c-17.6,0-35.2,0-52.7,0c-9.9,0-19.9,0.4-29.8-0.1c-11.5-0.6-20.8-5.6-26.4-16.2
		c-1.5-2.8-2.2-5.8-2.1-9.1c0-1.8,0-3.7,0-5.5c0-4.8,2.3-7,7.1-7c7.8,0,15.5,0,23.3,0c13.1,0,26.2,0,39.2,0c19.8,0,39.6,0,59.4,0
		c9.3,0,18.5,0,27.8,0c12.9,0,25.7,0.1,38.6-0.1c3.5,0,6,1.7,5.7,5.9c-0.3,3.4,0.3,6.9-0.4,10.4c-1.1,5.7-4,10.4-8.5,14
		c-6.3,5.2-13.6,7.9-21.8,7.8C456,644.8,446.2,644.8,436.4,644.8L436.4,644.8z"/>
	<path class="st1" d="M469.4,331.6c-0.7-1.8-1.1-3.6-1-5.5c0.1-7,6.9-12.6,13.8-11.3c3.9,0.7,7.2,5.4,7,9.5
		c-0.4,7-6.6,12.3-12.4,12.4c-4.7,0.1-8.8-0.9-12.1-4.2c-2.2-2.1-3.2-4.9-3.2-7.8c0.1-10.8,3.5-20,12.8-26.3
		c4.3-2.9,9.2-4.2,14.4-4.4c3.6-0.1,7.2,0,10.8,0.2c4.2,0.1,8.5,0.2,12.5-1.7c3.5-1.7,5.6-6.6,4.7-11.2c-0.6-3.3-3.7-7.3-7.9-7.2
		c-0.7,0-1.4-0.5-2.1-0.1c-0.2,0.4,0.1,0.6,0.4,0.8c5.7,4.3,5.6,12-0.2,16.4c-2.2,1.7-4.7,2.4-7.5,2.1c-4.9-0.5-8.2-5.1-7.2-10.5
		c1-5.5,4.2-9.6,9.4-11.5c5.4-2,10.8-1.5,15.3,2.6c2.6,2.3,3.3,5.7,3.7,9c0.5,4.9-0.2,9.7-2.3,14.1c-1.4,2.9-3.6,5.3-6.1,7.3
		c-3.9,3.1-8.4,5.1-13.2,6c-1.8,0.4-2,1-1.3,2.7c4.1,10.4-0.2,23.1-9.8,29c-5.1,3.1-10.5,4.9-16.5,5.5c-4.2,0.4-8.3,0.9-12.4,0.7
		c-7.1-0.4-14-1.9-20.2-5.5c-4.4-2.6-8.2-6-9.4-11.3c-1.6-7.1,0-13.6,4.7-19.4c5.7-7,13.5-9.9,22-12.2c-0.6-0.8-1.5-1.1-2.3-1.4
		c-2.9-1.2-5.4-2.9-7.1-5.5c-1.8-2.7-2.4-5.7-1.5-9c2.1-8.1,7.9-12.1,15.5-14.4c4.4-1.3,9-1.8,13.5-1.9c5.1-0.1,9.8,1.1,13.1,5.6
		c1.3,1.8,1.8,3.8,1.8,5.9c0.2,7-5.2,12.7-12.3,13c-3.6,0.2-7.1-0.3-9.8-3c-2.6-2.5-2.4-7.5,0.1-10.1c2.3-2.4,4.8-3.9,8.3-3.5
		c0.7,0.1,1.4,0.2,2,0.7c0.7,0.5,1.6,1.1,1.5,2.1c-0.1,1.1-1.1,1.1-1.9,1.4c-2.3,0.8-3.1,2.5-2.7,5.4c0.3,2,1.5,2.7,4,3
		c6.8,0.6,9-7,6.9-11.9c-0.5-1.1-1.2-2.2-2.2-3c-4-3.2-14.6-3.7-18.1,3.6c-2.6,5.3-3.5,10.6-2.7,16.3c0.4,2.9,2,5.1,5.1,5.7
		c0.9,0.2,2,0.4,1.8,1.6c-0.1,1.2-1.2,1.5-2.2,1.5c-4.9,0.3-8.4,3-10.8,6.9c-4.1,6.9-5.6,14.6-4.6,22.6c1,8.6,7.2,13.3,15.1,13.3
		c7.8,0.1,15.1-1.4,21.2-6.4c5.8-4.7,8.8-10.8,7.8-18.4c-0.6-5-4.3-8.2-9.2-9.4c-4.2-1-8.1-0.8-12.1,0.6c-6.5,2.3-10.9,9.9-9.1,15.8
		C465.9,329.5,467.3,331.1,469.4,331.6"/>
	<path class="st1" d="M318.1,372.1c-0.1-0.6-0.1-1.3-0.2-2c-0.2-0.9-0.4-1.8-0.6-2.7c-0.5-1.6-3.9-3-5.4-2.3
		c-0.5,0.2-0.6,0.6-0.6,1.1c0,3.7,0,7.3,0,11c0,0.9,0.4,1.3,1.2,1.4c2.7,0.6,5-1,5.4-3.7C318,374.1,318,373.2,318.1,372.1
		 M318.6,395.2c-0.2-1.3-0.1-2.6-0.4-3.9c-0.6-2.9-2.4-4.2-5.4-3.9c-1,0.1-1.5,0.6-1.5,1.6c0,4,0,7.9,0,11.9c0,1,0.5,1.5,1.5,1.6
		c4,0.3,5.3-0.8,5.7-4.8C318.6,396.9,318.6,396.1,318.6,395.2 M310.1,411.7c-2.4,0-4.8,0-7.3,0c-1.6,0-2.2-0.8-2.4-2.2
		c0-0.3-0.1-0.7-0.1-1c0-16.5,0-33,0.1-49.6c0-2.8,0.4-3.1,3.2-3.1c4,0,8.1,0,12.1,0c7,0,11.5,3.8,12.5,10.7
		c0.4,2.8,0.3,5.6,0.1,8.4c-0.2,2.7-1.3,5-3.2,6.9c-0.5,0.5-1.1,0.9-0.3,1.5c2.8,2.1,3.7,5.1,4.1,8.4c0.5,4,0.4,8-0.7,11.9
		c-1.5,4.9-5.2,7.7-10.7,8C315.1,411.8,312.6,411.7,310.1,411.7L310.1,411.7z"/>
	<path class="st1" d="M318.4,305c0.1-1.8-0.1-3.5-0.7-5.2c-0.6-1.5-4.2-2.8-5.6-2c-0.5,0.3-0.5,0.7-0.5,1.2c0,3.5,0,7,0,10.5
		c0,0.9,0.2,1.5,1.2,1.7c2.8,0.7,5.4-1,5.6-3.9C318.5,306.5,318.4,305.7,318.4,305 M314.3,335c3.2-0.1,4.1-0.9,4.6-4
		c0.4-2.4,0.2-4.8-0.3-7.2c-0.5-2.7-1.9-3.8-4.7-3.9c-1.7-0.1-2.4,0.5-2.4,2.3c0.1,3.5,0,6.9,0,10.4
		C311.7,334.9,311.8,335.1,314.3,335 M310.5,288.3c2,0,3.9,0,5.9,0c7.1,0,11.7,4,12.4,11.1c0.3,2.8,0.3,5.6,0.1,8.4
		c-0.3,2.5-1.4,4.6-3.1,6.4c-0.6,0.6-1,1.1-0.1,1.9c3,2.5,3.8,6,3.9,9.7c0.1,3,0.3,6-0.5,9c-1.5,5.9-5,9-11,9.3
		c-5,0.2-9.9,0.1-14.9,0.1c-1.4,0-2.1-0.6-2.2-2c-0.1-1.4-0.2-2.9-0.2-4.3c0.2-6-0.3-12.1,0-18.1c0.3-8.3-0.5-16.7,0.2-25
		c0.1-1.5,0-3,0-4.5c0-1.5,0.7-2.1,2.2-2.1C305.7,288.4,308.1,288.4,310.5,288.3C310.5,288.3,310.5,288.3,310.5,288.3"/>
	<path class="st1" d="M483.3,372.9c-0.1-1.1-0.3-2.2-0.4-3.4c-0.3-3.4-1.3-4.3-4.7-4.4c-1.5-0.1-2.3,0.4-2.3,2
		c0.1,3.8,0.1,7.7,0,11.5c0,1.5,0.8,1.8,2,1.8c3.7-0.1,4.6-0.9,5-4.7C483.1,374.8,483.2,373.9,483.3,372.9 M476,400.3
		c0,2.9,0,5.9,0,8.8c0,1.8-0.7,2.7-2.6,2.6c-1.8,0-3.7,0-5.5,0c-2.2,0-2.7-0.5-2.7-2.7c0.1-9.3-0.2-18.5,0-27.8
		c0.2-7.2-0.1-14.5-0.1-21.8c0-3.3,0.4-3.6,3.6-3.7c4.1,0,8.2-0.2,12.3,0c6.3,0.4,10.7,3.2,11.9,9.8c1,5.3,1.2,10.6-0.4,15.9
		c-0.7,2.2-2.1,3.9-4,5.2c-1.1,0.7-1.2,1.4-0.9,2.6c2,6.4,3.9,12.9,5.8,19.3c0.7,2.3,0.2,3-2.2,3c-1.7,0-3.4,0-5.1,0
		c-1.7,0.1-2.7-0.7-3.1-2.3c-1.5-5.9-3.1-11.7-4.7-17.6c-0.1-0.4-0.2-0.8-0.3-1.1c-0.2-0.7-0.5-1.5-1.4-1.2c-0.8,0.2-0.8,1-0.8,1.6
		C476,394.2,476,397.2,476,400.3L476,400.3z"/>
	<path class="st1" d="M386,372.9C386,372.9,385.9,372.9,386,372.9c0-1,0-2.1,0-3.1c-0.2-3.5-1.5-4.8-5-4.8c-1.2,0-1.8,0.4-1.9,1.6
		c-0.3,4.1-0.1,8.3,0.1,12.4c0,1.1,0.9,1.2,1.7,1.2c3.7,0.2,5.1-1.1,5.2-4.9C386,374.6,386,373.8,386,372.9 M368.3,384
		c0-8.3,0-16.6,0-24.9c0-2.8,0.4-3.2,3.2-3.2c4.2,0,8.5-0.2,12.7,0c5.9,0.3,10.8,3.1,11.8,10.3c0.7,4.9,1.1,9.8-0.2,14.7
		c-0.7,2.4-2,4.4-4.1,5.8c-1.1,0.7-1.3,1.5-1,2.8c1.9,6.2,3.7,12.4,5.6,18.5c1,3.1,0.6,3.7-2.7,3.7c-1.5,0-3-0.1-4.5,0
		c-1.7,0.1-2.6-0.7-3.1-2.4c-1.6-6-3.2-12-4.9-17.9c-0.1-0.2,0-0.4-0.1-0.6c-0.3-0.7-0.5-1.6-1.5-1.4c-0.9,0.2-0.9,1-0.9,1.8
		c0.1,5.8,0.2,11.6,0.2,17.4c0,2.7-0.5,3.2-3.2,3.2c-1.5,0-3,0-4.5,0c-2.6,0-3-0.4-3-2.9C368.3,400.5,368.3,392.2,368.3,384"/>
	<path class="st1" d="M411.5,305.8c0.1-1.6-0.2-3.3-0.4-4.9c-0.1-0.4-0.2-0.8-0.3-1.1c-0.7-1.6-2.7-2.5-5-2.2
		c-1.9,0.3-1.5,1.9-1.5,3.1c0,3.6,0,7.2,0,10.7c0,1.2,0.9,1.4,1.7,1.4c3.4,0.3,4.9-1,5.4-4.4C411.5,307.6,411.5,306.7,411.5,305.8
		 M404.3,333c0,2.9-0.1,5.9,0,8.8c0.1,1.7-0.6,2.5-2.2,2.5c-2,0-4.1,0-6.1,0c-1.6,0-2.2-0.7-2.2-2.3c0-6.1,0.2-12.1-0.1-18.2
		c-0.3-5.7,0.2-11.3,0-17c-0.1-5.4-0.2-10.8,0.1-16.2c0.1-1.5,0.7-2.2,2.3-2.2c4.6,0,9.3-0.1,13.9,0c6.3,0.2,10.5,4.1,11.5,10.5
		c0.7,4.3,0.7,8.7,0,13c-0.5,3-1.7,5.5-4.3,7.2c-1.2,0.8-1.4,1.7-1,3c1.6,5,3,10,4.6,15c0.5,1.5,0.9,3,1.3,4.5
		c0.5,1.8-0.1,2.6-2,2.7c-1.8,0.1-3.5-0.1-5.3,0c-1.9,0.1-2.9-0.7-3.4-2.5c-1.3-5-2.6-10-4-15c-0.3-1.2-0.6-2.4-1-3.6
		c-0.2-0.7-0.5-1.5-1.4-1.3c-0.8,0.2-0.8,0.9-0.8,1.6C404.2,326.7,404.2,329.8,404.3,333L404.3,333z"/>
	<path class="st1" d="M428.9,397.4c0,3.9,0,7.8,0,11.8c0,1.2-0.1,2.4-1.5,2.5c-1.5,0.1-3.4,0.9-4.4-1.1c-0.5-1.1-0.8-1.4-1.9-0.5
		c-8.3,6.2-19.3,1.5-20.6-8.9c-0.6-4.7-0.3-9.5-0.2-14.2c0.1-3.6-0.2-7.2,0-10.7c0.1-3.2-0.4-6.5,0.1-9.7c1.2-7.5,7-11.7,15.5-11.4
		c6.6,0.2,11.5,5.2,12.2,12.2c0.2,2.3,0.3,4.6,0.3,6.8c0,1.6-0.7,2.4-2.4,2.3c-2-0.1-3.9-0.1-5.9,0c-1.5,0-2.1-0.7-2.1-2.2
		c0-1.9-0.1-3.8-0.3-5.7c-0.4-2.6-1.6-4.1-3.5-3.9c-1.9,0.1-3.4,2-3.4,4.4c0,2.9,0,5.9,0,8.8c0,5.4-0.1,10.8,0,16.2
		c0,1.9-0.2,3.8,0.3,5.6c0.5,2,1.6,3.2,3.4,3.2c2.1,0,3.7-1.3,3.9-3.4c0.2-2,0.1-4,0.2-6.1c0.1-1.5-0.7-2-2.2-2.1
		c-2.9,0-3.1-0.3-3.1-3.2c0-5.1,0-5.2,4.9-5.5c2.8-0.2,5.6,0,8.4,0.1c1.7,0,2.3,0.9,2.3,2.5C428.9,389.3,428.9,393.3,428.9,397.4"/>
	<path class="st1" d="M361.9,379.7c0,6.5,0,12.9,0,19.4c0,7.8-5.5,13.3-13.3,13.5c-4.1,0.1-7.9-0.5-11.1-3.3c-3.4-3-4.3-7-4.3-11.2
		c-0.1-4.5,0.1-9.1,0-13.6c-0.1-6.2,0-12.3,0.1-18.5c0-2.5,0-5.1,0-7.6c0-1.7,0.6-2.6,2.4-2.5c1.9,0.1,3.8,0.1,5.7,0
		c1.8,0,2.6,0.7,2.5,2.6c-0.1,6.1,0,12.3,0,18.4c0,6.7,0,13.4,0,20.1c0,1.1,0.1,2.2,0.4,3.3c0.5,2,1.5,2.6,3.8,2.6
		c1.9,0,2.7-1,3.1-2.6c0.5-1.8,0.4-3.6,0.4-5.5c0-12.1,0-24.2,0-36.3c0-2.3,0.4-2.7,2.6-2.7c1.6,0,3.3,0,4.9,0c2.5,0,3,0.4,3,3
		C361.9,365.8,361.9,372.8,361.9,379.7"/>
	<path class="st1" d="M363.6,316.3c0-8.4,0-16.9,0-25.3c0-2.3,0.4-2.7,2.6-2.7c6.5,0,13.1,0,19.6,0c2.2,0,2.7,0.4,2.7,2.6
		c0,1.6,0,3.1,0,4.7c0,1.5-0.8,2.3-2.3,2.2c-3.2-0.2-6.4,0.3-9.6-0.3c-1.7-0.3-2.4,0.5-2.4,2.2c0.1,2.9,0.2,5.9,0.1,8.8
		c-0.1,1.7,0.6,2.2,2.2,2.1c2-0.1,3.9,0,5.9,0c1.6,0,2.4,0.7,2.4,2.4c0,1.6-0.1,3.2-0.1,4.9c0,1.3-0.7,2.1-2.1,2c-2.2,0-4.3,0-6.5,0
		c-1.3,0-1.9,0.5-1.9,1.9c0,3.5,0.1,7,0,10.6c0,1.9,0.8,2.3,2.5,2.3c3.3-0.1,6.7,0,10-0.1c1.8,0,2.4,0.8,2.3,2.6
		c-0.1,1.4,0.1,2.9,0.1,4.3c0,2.2-0.6,2.8-2.8,2.8c-5.9,0-11.8-0.1-17.6,0c-5.1,0-5.2,0.2-5.1-5.2
		C363.7,331.5,363.6,323.9,363.6,316.3L363.6,316.3z"/>
	<path class="st1" d="M346.5,344.3c-3.3,0-6.7,0-10,0c-2.2,0-2.7-0.5-2.7-2.6c-0.2-10.3-0.1-20.7,0-31c0-3.9-0.2-7.8-0.2-11.7
		c0-2.9,0.1-5.9,0.2-8.8c0-1.7,1.3-1.8,2.5-1.8c4.5,0,9,0,13.5,0c2,0,4.1,0,6.1,0c2.3,0.1,2.7,0.5,2.8,2.8c0,1.5,0,3,0,4.5
		c0,1.5-0.7,2.4-2.3,2.3c-3.2-0.1-6.4,0.3-9.6-0.2c-1.8-0.3-2.5,0.4-2.5,2.3c0,3,0.1,6,0,9c0,1.3,0.5,1.8,1.7,1.7c2.2,0,4.3,0,6.5,0
		c1.6,0,2.5,0.7,2.4,2.4c-0.1,1.6,0,3.1,0,4.7c0,1.6-0.7,2.2-2.3,2.2c-2.1-0.1-4.2,0-6.2,0c-1.5,0-2.1,0.5-2.1,2.1
		c0.1,3.3,0,6.6,0,10c0,2.3,0.4,2.6,2.6,2.6c3.3,0,6.7,0,10,0c1.7,0,2.3,0.8,2.3,2.4c-0.1,1.5,0,3,0,4.5c0,2.2-0.5,2.7-2.8,2.7
		c-1.6,0-3.3,0-4.9,0C349.8,344.3,348.1,344.3,346.5,344.3"/>
	<path class="st1" d="M448,411.7c-3.3,0-6.7,0-10,0c-1.7,0-2.6-0.5-2.7-2.5c-0.2-10.4,0-20.8,0-31.2c0-3.8-0.2-7.7-0.2-11.5
		c0-2.9,0.2-5.9,0.2-8.8c0-1.8,1.2-1.9,2.5-1.9c4.5,0,9,0,13.5,0c2.1,0,4.2,0,6.3,0c1.7,0,2.7,0.7,2.6,2.6c-0.1,1.6,0,3.3-0.1,4.9
		c0,1.4-0.8,2.2-2.3,2.1c-3.2-0.1-6.4,0.3-9.6-0.2c-1.8-0.3-2.5,0.4-2.5,2.2c0,2.9,0,5.9,0,8.8c0,1.4,0.5,2,2,2c2.1-0.1,4.2,0,6.3,0
		c1.6,0,2.4,0.7,2.4,2.4c0,1.5-0.1,3,0,4.5c0.1,1.8-0.8,2.5-2.5,2.4c-2-0.1-4,0-6,0c-1.5-0.1-2.1,0.6-2,2.1c0.1,3.5,0.1,6.9,0,10.4
		c0,1.6,0.6,2.3,2.2,2.2c2.9-0.1,5.9,0,8.8-0.1c3.4-0.1,3.9,0.3,3.9,3.6c0,1.1,0,2.2,0,3.3c0,2.4-0.5,2.8-2.9,2.8
		C454.5,411.8,451.3,411.8,448,411.7L448,411.7z"/>
</g>
<g>
	<defs>
		<rect id="SVGID_3_" x="289.6" y="422.7" width="216.6" height="172.2"/>
	</defs>
	<clipPath id="SVGID_4_">
		<use xlink:href="#SVGID_3_"  style="overflow:visible;"/>
	</clipPath>
	<path class="st2" d="M295.5,506.3v6.4c0,2.7,1.8,5,4.1,5h194c2.2,0,4.1-2.2,4.1-5v-6.4c0-2.7-1.8-5-4.1-5h-194
		C297.3,501.3,295.5,503.6,295.5,506.3"/>
	<path class="st2" d="M307.5,514.8l35.9,45.4l44.7-45.4C363.4,510.6,330,507.4,307.5,514.8"/>
	<g class="st3">
		<text transform="matrix(1.5454 0 0 1 296.2363 555.2867)" class="st4 st5 st6">       </text>
	</g>
	<g class="st3">
		<text transform="matrix(1 0 0 1 296.0976 594.6403)" class="st4 st5 st7">THURSD</text>
	</g>
	<g class="st3">
		<text transform="matrix(1 0 0 1 447.998 594.6403)" class="st4 st5 st7">AY</text>
	</g>
</g>
<text transform="matrix(1 0 0 1 377.5302 555.1412)" class="st4 st5 st8">EVE</text>
<text transform="matrix(1 0 0 1 448.9892 555.1412)" class="st4 st5 st8">RY</text>
<text transform="matrix(1 0 0 1 490.975 552.2321)" class="st4 st5 st9"> </text>
<g>
	<defs>
		<rect id="SVGID_5_" x="289.6" y="422.7" width="216.6" height="172.2"/>
	</defs>
	<clipPath id="SVGID_6_">
		<use xlink:href="#SVGID_5_"  style="overflow:visible;"/>
	</clipPath>
	<path class="st10" d="M289.6,454.8L289.6,454.8c0,17.7,8.2,32.1,18.2,32.1h180.1c10.1,0,18.2-14.4,18.2-32.1v0
		c0-17.7-8.2-32.1-18.2-32.1H307.9C297.8,422.7,289.6,437.1,289.6,454.8"/>
	<g class="st11">
		<text transform="matrix(1 0 0 1 345.0605 475.3131)" class="st0 st12 st13">£10</text>
	</g>
</g>
</svg>
