<?xml version="1.0" encoding="utf-8"?>
<!-- Generator: Adobe Illustrator 25.3.1, SVG Export Plug-In . SVG Version: 6.00 Build 0)  -->
<svg version="1.1" id="Layer_1" xmlns="http://www.w3.org/2000/svg" xmlns:xlink="http://www.w3.org/1999/xlink" x="0px" y="0px"
	 viewBox="0 0 800 800" style="enable-background:new 0 0 800 800;" xml:space="preserve">
<style type="text/css">
	.st0{fill:#CBE9E3;}
	.st1{fill:#E94A39;}
	.st2{font-family:'Maxular-Light';}
	.st3{font-size:21.3102px;}
	.st4{fill:#1C2C6E;}
	.st5{font-family:'SofiaProCondensed-Black';}
	.st6{font-size:113.3361px;}
	.st7{clip-path:url(#SVGID_2_);fill:#273269;}
	.st8{font-size:58.5542px;}
	.st9{font-family:'AzoSansUber-Regular';}
	.st10{font-size:50.9388px;}
	.st11{font-size:23px;}
	.st12{letter-spacing:-1;}
	.st13{letter-spacing:-2;}
	.st14{clip-path:url(#SVGID_4_);fill:none;stroke:#1C2C6E;stroke-width:0.849;}
	.st15{font-size:69.7407px;}
</style>
<rect x="-2.2" y="-1.2" class="st0" width="803.1" height="803.1"/>
<text transform="matrix(1 0 0 1 490.975 552.2321)" class="st1 st2 st3"> </text>
<text transform="matrix(1 0 0 1 308.5793 418.4714)" class="st4 st5 st6">FISH</text>
<g>
	<defs>
		<rect id="SVGID_1_" x="259.2" y="131.5" width="369.6" height="513.9"/>
	</defs>
	<clipPath id="SVGID_2_">
		<use xlink:href="#SVGID_1_"  style="overflow:visible;"/>
	</clipPath>
	<path class="st7" d="M435,325.4c-9.6,0-19.3-0.1-28.9,0.1c-2.5,0-3.6-0.8-4.2-3.2c-6.7-25.6-13.5-51.2-20.3-76.8
		c-0.5-1.9,0-3.2,1.2-4.6c13.7-17.1,30.1-31.2,48.2-43.2c2.7-1.8,3.5-3.2,2.2-6.4c-7.3-18.7-14.2-37.5-21.3-56.3
		c-0.4-1-1.4-2.1-0.5-3c0.8-0.9,2.1,0,3.1,0.2c31.3,9,62.5,18.4,93.6,28.2c0.6,0.2,1.1,0.4,1.7,0.6c1.7,0.5,1.6,1.3,0.3,2.2
		c-3,2.2-6,4.3-9,6.5c-14.1,10.2-28.1,20.4-42.2,30.5c-2.2,1.6-2.6,2.9-1.5,5.4c8.5,20.1,14.2,40.9,16.2,62.7
		c1.7,18.1,0.2,35.8-5.1,53.3c-0.9,2.9-2.1,4-5.2,3.9C453.8,325.3,444.4,325.4,435,325.4"/>
	<path class="st7" d="M380.2,325.4c-2.9,0-5.8-0.2-8.7,0.1c-2.8,0.2-3.9-0.9-4.5-3.5c-4.3-16.5-8.7-33-13.1-49.5
		c-4.5-16.9-9-33.7-13.4-50.6c-1-3.9-1-3.9,2.8-4.9c5.4-1.5,10.9-2.8,16.3-4.4c2.7-0.8,3.6,0,4.3,2.6c8.4,32,16.9,64,25.4,96
		c1,3.8,2,7.6,3,11.3c0.6,2.1,0,3-2.2,2.9C386.8,325.3,383.5,325.4,380.2,325.4"/>
	<path class="st7" d="M324.9,325.4c-2.4,0-4.9-0.3-7.2,0.1c-6.9,1-12.4-1.6-18-5.6c-12.6-9.2-25.6-18-38.5-26.8
		c-2.2-1.5-2.7-2.6-1-4.9c3.5-4.6,6.8-9.5,10-14.3c1.4-2.2,2.6-2.4,4.8-0.9c18.2,12.7,36.4,25.3,54.6,38c2.4,1.7,4.7,3.4,7.2,4.9
		c2.6,1.6,4.3,3.9,5.6,6.5c1.2,2.4,0.9,3.1-1.8,3.1C335.3,325.5,330.1,325.4,324.9,325.4"/>
	<path class="st7" d="M347.7,287.6c-0.9,4.4-1.6,8.7-2.6,12.9c-0.4,1.6,0.3,4.4-1.2,4.6c-1.8,0.3-2.2-2.5-3-4
		c-13.2-22.8-26.4-45.7-39.7-68.5c-1.5-2.5-1.1-3.7,1.4-5c5.3-2.8,10.5-5.9,15.6-9c1.7-1,2.6-0.7,3.6,1c4.9,8.5,10.1,16.9,14.7,25.6
		c2.7,5.1,3.3,10.9,4.8,16.4c2.2,8.1,4.1,16.3,6.1,24.5C347.5,286.6,347.7,287.2,347.7,287.6"/>
	<path class="st7" d="M484,325.4c-6.8,0-6.5,0.1-5.2-6.1c1.1-5.3,4.3-9.2,6.7-13.6c5.3-9.7,12.9-16.9,22.3-22.5
		c6.7-4,13-8.7,19.4-13.2c2.2-1.6,3.4-1.2,4.8,1c3.3,5.1,6.7,10,10.2,14.9c1.2,1.7,1.2,2.6-0.6,3.8c-16.8,11.5-33.7,23-50.4,34.6
		C488.7,325.8,486.1,325.2,484,325.4"/>
	<path class="st7" d="M483.4,288.6c0.4-11.6-0.3-22.4-2.1-33.1c-0.4-2.6,0-4.6,1.5-6.7c3.8-5.5,7.5-11.1,11.2-16.8
		c1.2-1.8,2.2-2.2,4.1-0.9c5.2,3.6,10.5,7.1,15.8,10.5c1.7,1.1,1.7,2,0.7,3.6c-9.6,14.4-19.2,28.9-28.8,43.3c-0.5,0.7-0.8,2-1.8,1.7
		C482.8,289.9,483.5,288.7,483.4,288.6"/>
	<path class="st7" d="M327.8,298.2c-5-3.5-9.4-6.4-13.7-9.4c-8.8-6.1-17.6-12.2-26.4-18.3c-0.4-0.3-0.8-0.6-1.2-0.9
		c-5.1-3.8-5.1-5.5,0-9c4.1-2.8,8.2-5.7,12.3-8.6c1.5-1.1,2.4-0.9,3.4,0.7c8.4,14.6,16.8,29.2,25.2,43.8
		C327.5,296.6,327.5,296.9,327.8,298.2"/>
	<path class="st7" d="M474.9,226.6c0.2-0.6,0.4-1.3,0.7-1.8c1.6-2.9,3.4-5.7,5-8.6c0.9-1.6,1.8-1.8,3.4-0.9c7.4,4,7.4,3.9,2.7,11
		c-2.3,3.4-4.5,6.9-6.8,10.3c-0.4,0.5-0.6,1.4-1.5,1.2c-0.7-0.2-0.7-0.9-0.8-1.5C476.7,233.1,475.8,229.9,474.9,226.6"/>
	<path class="st7" d="M354.3,310.2c1.1,4.2,2.3,8.4,3.3,12.7c0.3,1.1,0.6,2.4-1.1,2.4c-1.4,0-3.6,0.9-3.9-1.5
		c-0.5-4.5,0.4-9,0.6-13.5C353.6,310.3,353.9,310.2,354.3,310.2"/>
</g>
<text transform="matrix(1 0 0 1 312.0989 467.6853)" class="st4 st2 st8">CHIPS</text>
<rect x="316.5" y="538.4" class="st4" width="172.5" height="65.8"/>
<text transform="matrix(1 0 0 1 356.5994 589.49)" class="st0 st9 st10">£10</text>
<text transform="matrix(1 0 0 1 317.7825 629.4021)"><tspan x="0" y="0" class="st4 st2 st11">EVE</tspan><tspan x="45.9" y="0" class="st4 st2 st11 st12">R</tspan><tspan x="59.9" y="0" class="st4 st2 st11">Y FRI</tspan><tspan x="121.2" y="0" class="st4 st2 st11">D</tspan><tspan x="137.9" y="0" class="st4 st2 st11 st13">A</tspan><tspan x="152.7" y="0" class="st4 st2 st11">Y</tspan></text>
<g>
	<defs>
		<rect id="SVGID_3_" x="259.2" y="131.5" width="369.6" height="513.9"/>
	</defs>
	<clipPath id="SVGID_4_">
		<use xlink:href="#SVGID_3_"  style="overflow:visible;"/>
	</clipPath>
	<line class="st14" x1="314.3" y1="645" x2="489" y2="645"/>
</g>
<text transform="matrix(1 0 0 1 313.4807 528.0291)"><tspan x="0" y="0" class="st4 st5 st15 st12">&amp;</tspan><tspan x="35" y="0" class="st4 st5 st15"> </tspan><tspan x="46" y="0" class="st4 st5 st15">WINE</tspan></text>
</svg>
