<?xml version="1.0" encoding="utf-8"?>
<!-- Generator: Adobe Illustrator 25.2.3, SVG Export Plug-In . SVG Version: 6.00 Build 0)  -->
<svg version="1.1"
	 id="Background_copy__x2B__Rectangle_1__x2B__Vector_Smart_Object__x2B__Black__x26__White_2__x2B__Levels_1_xA0_Image_1_"
	 xmlns="http://www.w3.org/2000/svg" xmlns:xlink="http://www.w3.org/1999/xlink" x="0px" y="0px" viewBox="0 0 595.2 120.4"
	 style="enable-background:new 0 0 595.2 120.4;" xml:space="preserve">
<style type="text/css">
	.st0{fill:#FFFFFF;}
</style>
<g>
	<path class="st0" d="M4.4,62c0-22.1,11.3-39.9,33.8-39.9c6,0,12.3,1.7,15.3,2.8c2.7,1,5.7,2.4,5.7,0v-0.8c0-1,0.3-1.1,0.6-1.1
		c0.4,0,0.8,0.2,0.8,1.1v26c0,0.8-0.3,1-0.8,1s-0.6-0.2-0.6-1v-1.3c0-16.2-10-25.5-20.8-25.5c-12.3,0-13.7,10.5-14.3,22.6
		c-0.5,11-0.5,21.1,0.1,31.8c0.8,12.6,2,21.9,13.7,21.9c8.2,0,11.5-4.2,11.5-12V73.1c0-3.4-0.2-4.4-1.2-4.4h-7.9
		c-0.8,0-1.1-0.1-1.1-0.5c0-0.5,0.2-0.8,1.1-0.8h30.9c0.8,0,1.1,0.2,1.1,0.6c0,0.5-0.2,0.6-1.1,0.6h-4.5c-1,0-1.1,1-1.1,4.4v25.5
		c0,0.9-0.3,1.1-0.8,1.1s-0.8-0.2-0.8-1.1v-0.3c0-1.3-1.2-2.3-4.7-2.3c-8.1,0-11.6,4.7-21.7,4.7C14.8,100.8,4.4,81.5,4.4,62z"/>
	<path class="st0" d="M138.6,31.3h-0.2c-4.4,0-5.7,3.6-5.7,20.5v23.8c0,12.3-5.2,20.1-21.4,20.1c-14.9,0-23.5-8.9-23.5-18V35.1
		c0-2.9-0.1-3.8-1-3.8h-4.1c-0.7,0-0.8-0.3-0.8-0.5c0-0.3,0.1-0.5,0.8-0.5H105c0.7,0,0.8,0.3,0.8,0.5c0,0.3-0.1,0.5-0.8,0.5h-4.8
		c-0.8,0-0.9,0.9-0.9,3.8v46.3c0,8.7,5.4,13,13.8,13c14.7,0,18.5-7.6,18.5-19.1V52.4c0-16.2-2.1-21.2-8.4-21.2h-1
		c-0.7,0-0.8-0.3-0.8-0.5c0-0.3,0.1-0.5,0.8-0.5h16.5c0.7,0,0.8,0.3,0.8,0.5C139.5,31,139.4,31.3,138.6,31.3z"/>
	<path class="st0" d="M204.7,31.3h-0.2c-4.4,0-5.7,3.6-5.7,20.4V95c0,0.3-0.3,0.5-0.9,0.5H193c-0.5,0-0.7-0.3-0.9-0.5l-35.4-59.8
		h-0.1v37.1c0,15.1,2.5,21.2,9.7,21.2h1.3c0.7,0,0.8,0.3,0.8,0.5c0,0.3-0.1,0.5-0.8,0.5h-18c-0.5,0-0.8-0.1-0.8-0.5
		c0-0.5,0.2-0.6,0.8-0.6h0.2c4.4,0,5.7-3.6,5.7-20.5V35.1c0-2.9-0.1-3.8-0.9-3.8h-4.4c-0.5,0-0.8-0.2-0.8-0.5c0-0.5,0.2-0.5,0.8-0.5
		h16.1c0.4,0,0.6,0.3,0.9,0.5l30.4,51.6h0.2V52.4c0-15.1-2.5-21.2-9.7-21.2h-1.1c-0.5,0-0.8-0.2-0.8-0.5c0-0.5,0.2-0.5,0.8-0.5h17.8
		c0.6,0,0.8,0.2,0.8,0.5C205.5,31.1,205.3,31.3,204.7,31.3z"/>
	<path class="st0" d="M278.6,94.6h-21.3c-0.6,0-0.9-0.1-0.9-0.5c0-0.5,0.2-0.6,0.9-0.6h4.1c0.8,0,0.9-0.9,0.9-3.8V33.5h-0.1
		l-15.2,61c-0.1,0.7-0.4,0.9-0.9,0.9h-4c-0.5,0-0.7-0.3-0.9-0.8l-18.2-61.1h-0.1v38.8c0,17.4,2.1,21.2,8.1,21.2h0.7
		c0.6,0,0.8,0.3,0.8,0.5c0,0.5-0.2,0.5-0.8,0.5h-15.9c-0.6,0-0.8-0.1-0.8-0.5c0-0.4,0.3-0.5,0.8-0.5h0.2c4.4,0,5.7-3.6,5.7-20.5
		V35.1c0-2.9-0.1-3.8-0.9-3.8h-4.4c-0.5,0-0.8-0.2-0.8-0.5c0-0.5,0.2-0.5,0.8-0.5h16.5c0.5,0,0.9,0.2,1.1,0.7l14.8,51.6h0.1
		l12.8-51.6c0.2-0.5,0.5-0.7,1-0.7h16c0.7,0,0.9,0.1,0.9,0.5c0,0.4-0.3,0.5-0.9,0.5h-4.1c-0.8,0-0.9,0.9-0.9,3.8v54.6
		c0,2.9,0.1,3.8,0.9,3.8h4.1c0.6,0,0.9,0.2,0.9,0.5C279.5,94.5,279.3,94.6,278.6,94.6z"/>
	<path class="st0" d="M345.1,94.6h-21.9c-0.6,0-0.9-0.1-0.9-0.5c0-0.5,0.2-0.6,0.9-0.6h3.7c1.6,0,2.2-0.7,0.9-4.6l-6.1-18.1
		c-0.1-0.4-0.3-0.5-0.7-0.5h-17.7c-0.5,0-0.6,0.1-0.7,0.5l-1.8,5.6c-4.1,12.8-1.1,17.1,3.6,17.1h2c0.5,0,0.8,0.2,0.8,0.5
		c0,0.5-0.2,0.5-0.8,0.5h-17.4c-0.5,0-0.8-0.1-0.8-0.5c0-0.5,0.2-0.6,0.8-0.6h0.3c2.9,0,5.7-2.6,10.2-17.3l14.5-46.4
		c0.2-0.5,0.4-0.5,0.8-0.5h4.2c0.5,0,0.7,0.2,0.8,0.5L340,88.9c1.4,3.9,1.9,4.6,3.4,4.6h1.7c0.5,0,0.8,0.2,0.8,0.5
		C345.9,94.5,345.8,94.6,345.1,94.6z M311.8,40.5h-0.2l-8.5,28.1c-0.1,0.4,0.1,0.5,0.7,0.5h16.2c0.5,0,0.8-0.4,0.7-0.7L311.8,40.5z"
		/>
	<path class="st0" d="M388.7,84.7c0-4.6,0.1-8.3,0.1-12.7c-0.1-6.9-1.9-11.3-8.8-11.3h-8c-0.6,0-0.9,0.4-0.9,0.6v28.3
		c0,2.9,0.1,3.8,0.9,3.8h4.2c0.5,0,0.8,0.2,0.8,0.5c0,0.5-0.2,0.5-0.8,0.5h-21.4c-0.6,0-0.9-0.1-0.9-0.5c0-0.5,0.2-0.6,0.9-0.6h4.1
		c0.8,0,0.9-0.9,0.9-3.8V35.1c0-2.9-0.1-3.8-0.9-3.8h-4.1c-0.6,0-0.9-0.2-0.9-0.5c0-0.5,0.2-0.5,0.9-0.5h21.4c0.5,0,0.8,0.1,0.8,0.5
		c0,0.5-0.2,0.6-0.8,0.6H372c-0.8,0-0.9,0.9-0.9,3.8v24.3c0,0.3,0.2,0.4,0.8,0.4h4.5c4.8,0,6.6-2.2,6.6-7.2c0-4.6-1.5-9.4-1.5-14
		c0-5.4,3.6-9.5,10-9.5c6,0,10.1,4.1,10.1,8.6c0,3.9-2.6,6.8-6.5,6.8c-3.6,0-6.5-2.6-6.5-6.3c0-3,2.9-4.1,2.9-5.8
		c0-1.1-0.8-1.7-2.3-1.7c-4.5,0-6.7,4.1-6.7,7.7c0,4.7,1.5,10.2,1.5,14.7c0,2.6-0.5,5.4-3.1,6.8v0.1c9-0.5,19.1,4.7,19.1,18.2v11.5
		c0,1.8,0.2,4.5,2.8,4.5c1.5,0,3.1-1.1,3.8-3.1c0.2-0.5,0.3-0.8,0.8-0.7c0.5,0,0.5,0.5,0.4,1c-0.9,2.7-3.8,4.5-7.6,4.5
		C393.4,95.7,388.7,91.3,388.7,84.7z"/>
	<path class="st0" d="M463.2,73.6v20.3c0,0.5-0.3,0.6-0.8,0.6h-44.3c-0.6,0-0.9-0.1-0.9-0.5c0-0.5,0.2-0.6,0.9-0.6h4.1
		c0.8,0,0.9-0.9,0.9-3.8V35.1c0-2.9-0.1-3.8-0.9-3.8h-4.1c-0.6,0-0.9-0.2-0.9-0.5c0-0.5,0.2-0.5,0.9-0.5h41.2c0.5,0,0.8,0.2,0.8,0.7
		v19.6c0,0.6-0.3,0.8-0.6,0.8c-0.5,0-0.6-0.2-0.6-0.8v-0.9c0-9.7-5-18.3-14.5-18.3h-9.1c-0.5,0-0.9,0.2-0.9,0.5v28.1
		c0,0.3,0.2,0.5,0.8,0.5h5.4c5.1,0,9.4-3.9,9.4-9.1v-0.8c0-0.6,0.2-0.8,0.6-0.8c0.4,0,0.5,0.2,0.5,0.8v21c0,0.6-0.2,0.8-0.6,0.8
		c-0.4,0-0.5-0.2-0.5-0.8v-0.7c0-5.4-4.3-9.3-9.4-9.3h-5.3c-0.6,0-0.9,0.2-0.9,0.5v31c0,0.3,0.2,0.5,0.8,0.5h8.5
		c14.1,0,18.2-12.5,18.2-19.1v-0.8c0-0.6,0.2-0.8,0.6-0.8C462.9,72.8,463.2,73,463.2,73.6z"/>
	<path class="st0" d="M510.8,84.7c0-4.6,0.1-7.8,0.1-12.2c-0.1-6.8-1.8-11.2-8.7-11.2h-8.9c-0.6,0-0.9,0.3-0.9,0.5v27.8
		c0,2.9,0.1,3.8,0.9,3.8h4.2c0.5,0,0.8,0.2,0.8,0.5c0,0.5-0.2,0.5-0.8,0.5h-21.4c-0.6,0-0.9-0.1-0.9-0.5c0-0.5,0.2-0.6,0.9-0.6h4.1
		c0.8,0,0.9-0.9,0.9-3.8V35.1c0-2.9-0.1-3.8-0.9-3.8h-4.1c-0.7,0-0.9-0.3-0.9-0.5c0-0.3,0.2-0.5,0.9-0.5H503
		c8.9,0,19.6,3.5,19.6,15.7c0,9.1-8.5,14.1-16.3,14.9v0.1c9.1,1,16.1,6.8,16,17.7c0,3.4-0.1,8.4-0.1,11c0,1.8,0.3,4.5,2.9,4.5
		c1.5,0,3.1-1.1,3.8-3.1c0.2-0.5,0.3-0.8,0.8-0.7c0.5,0,0.5,0.5,0.4,1c-0.9,2.7-3.9,4.5-7.6,4.5C515.4,95.7,510.8,91.3,510.8,84.7z
		 M502.6,31.3h-9.2c-0.6,0-0.9,0.3-0.9,0.5v27.9c0,0.4,0.2,0.5,0.8,0.5h9.6c5.2,0,8.5-3.2,8.5-14.3
		C511.4,34.5,507.6,31.3,502.6,31.3z"/>
	<path class="st0" d="M548.8,97.8c-3.1-1.2-5.7-1.9-5.7,0.2v0.6c0,0.9-0.2,1.1-0.6,1.1c-0.4,0-0.8-0.2-0.8-1.1V71.4
		c0-0.8,0.2-1,0.6-1c0.5,0,0.8,0.1,0.8,1v1c0,10.9,5.9,27.4,21.7,27.4c10,0,15.1-5.5,15.1-13.4c0-21.3-37.7-17.6-37.7-42.7
		c0-10.8,7.8-21.6,22-21.6c4.9,0,8.9,1.4,12.8,2.9c2.3,0.9,5,2.2,5,0v-0.9c0-0.8,0.2-1,0.6-1c0.4,0,0.8,0.2,0.8,1V48
		c0,0.8-0.3,1-0.8,1c-0.4,0-0.6-0.2-0.6-1v-1c0-14.4-7.3-23.8-18.4-23.8c-7.1,0-11.9,4.4-11.9,12.1c0,21.9,38.7,17.7,38.7,43.1
		c0,12.1-10.1,22.4-25.7,22.4C558.1,100.8,553,99.2,548.8,97.8z"/>
</g>
</svg>
